<svg width="110" height="72" viewBox="0 0 110 72" fill="none" xmlns="http://www.w3.org/2000/svg">
<path d="M37.449 54.2659C37.0245 41.7275 24.9666 43.5758 24.8933 43.4907C30.1883 35.6946 28.5476 28.8539 19.7085 30.177C7.92917 32.0654 4.2075 41.8477 4.2075 41.8477C2.21281 42.7976 3.49187 47.2526 3.5413 53.2475C3.59984 60.663 4.93607 66.77 8.04412 66.5946C8.52152 66.5678 9.02296 66.4373 9.50594 66.1682C9.27643 68.1755 21.8728 68.4985 26.2492 67.8577C31.4127 67.0761 37.1491 61.6363 37.449 54.2659V54.2659ZM21.7267 35.0017C23.6227 34.6203 20.3274 43.7264 10.96 47.7347C10.9413 47.7667 10.8699 47.5326 10.7399 47.1086C10.7399 47.1086 10.7405 47.1044 10.7417 47.096C10.4835 46.2695 9.99891 44.7267 9.2034 42.9696C9.2034 42.9696 9.20399 42.9654 9.21567 42.9497C9.48782 42.5628 13.9547 36.3479 21.7319 34.998L21.7267 35.0017ZM29.0437 60.0929C27.631 61.1814 24.8473 64.1432 12.1997 61.2481C12.3029 61.2555 12.6578 58.3545 12.1641 55.357C12.0994 54.9746 12.0206 54.5905 11.9314 54.2137C11.9314 54.2137 11.9588 54.187 12.0236 54.1304C12.8739 53.3702 19.6698 47.6033 28.5371 48.7133C34.0681 49.8363 31.4558 58.227 29.0483 60.0934L29.0437 60.0929Z" fill="black"/>
<path d="M56.1074 68.8292C53.8918 68.9227 52.8055 66.7062 51.8152 63.3326C51.7983 63.2838 51.7325 63.2806 51.712 63.3251C48.1229 70.812 43.7804 67.5989 43.5883 67.4492L43.5836 67.4487C41.6253 66.1135 40.8689 63.4358 40.5409 58.6838C40.1839 53.4298 40.1812 48.6551 43.2958 48.3654C47.054 48.0123 45.494 53.2233 46.0686 58.3784C46.2281 59.8075 46.3941 61.1223 46.5155 62.2828C46.5241 62.3903 46.6674 62.4493 46.7619 62.3833C47.9213 61.5132 49.4795 55.4026 49.8523 53.8933C50.1024 52.9882 50.5708 52.3167 51.7485 52.0925C55.2367 51.4359 55.7799 55.2617 56.9147 59.9008C58.0518 64.5571 59.4887 68.6976 56.1208 68.835L56.1074 68.8292Z" fill="black"/>
<path d="M71.5514 67.945C69.2215 69.7989 67.4182 70.6 65.5947 69.958C65.59 69.9575 65.5807 69.9564 65.576 69.9559C65.2964 69.8559 65.0122 69.7213 64.728 69.5526C64.7017 69.5368 64.6802 69.5216 64.654 69.5058C64.654 69.5058 64.6499 69.5011 64.6412 69.4958C64.6028 69.4659 64.5603 69.4312 64.5218 69.4013C64.4881 69.3719 64.4549 69.3382 64.4217 69.3046C61.5585 66.5196 61.8298 55.774 62.6478 40.7595C63.5426 24.2532 60.1106 13.334 64.0072 12.3658C69.7049 10.9501 68.958 25.4909 68.7222 40.9127C68.5989 49.1856 68.9227 56.9722 68.6721 62.4044C68.6674 62.4721 68.7518 62.5115 68.8137 62.4759C71.0589 61.1922 73.3045 60.8846 74.2747 61.8688C75.4685 63.0829 74.2524 65.8094 71.5549 67.954L71.5514 67.945Z" fill="black"/>
<path d="M102.391 56.2998C100.941 56.8768 97.5619 53.6836 91.7444 49.8766C88.9509 48.0458 85.866 47.0772 83.898 46.0138C85.496 59.2694 87.1797 69.0777 83.6237 69.0701C79.7792 69.0595 78.6608 56.3357 77.2648 40.2895C75.8689 24.2433 73.8109 11.0249 78.5654 10.9641C82.5464 10.9135 81.7965 19.6353 82.6677 33.2432C82.842 32.8111 83.0268 32.3718 83.2163 31.9329C86.0993 25.4272 86.476 19.4338 89.2434 20.2343C92.6565 21.2275 90.1615 26.5538 88.228 33.3806C87.377 36.3744 86.715 39.2022 85.9171 41.3452C88.1207 42.2819 91.4351 44.2145 94.8328 46.5999C100.4 50.5063 105.918 54.889 102.391 56.2998Z" fill="black"/>
<path d="M44.3534 13.6632C45.4088 13.8044 46.3913 13.1487 46.5476 12.2031C46.7045 11.2533 45.976 10.3691 44.9253 10.2284C43.8699 10.0871 42.8875 10.7428 42.7312 11.6884C42.5742 12.6383 43.3027 13.5224 44.3534 13.6632Z" fill="black"/>
<path d="M70.4615 6.80804C69.7961 10.8418 65.178 9.22148 59.5408 9.4633C56.772 9.58348 51.9131 13.1236 49.4114 10.6312C47.0965 8.32627 52.1268 4.40913 57.5074 2.95735C62.8887 1.50138 71.2885 1.79089 70.4615 6.80804V6.80804Z" fill="black"/>
</svg>
